<svg width="23" height="24" viewBox="0 0 23 24" fill="none" xmlns="http://www.w3.org/2000/svg">
<g clip-path="url(#clip0_309_676)">
<path d="M18.2971 17.1817H18.3113C19.1869 17.1043 20.0158 16.7541 20.6803 16.1807C21.3447 15.6073 21.811 14.84 22.0128 13.9876C22.0179 13.9644 22.0184 13.9405 22.0142 13.9172C22.0101 13.8938 22.0013 13.8715 21.9885 13.8516C21.9757 13.8316 21.959 13.8143 21.9395 13.8008C21.92 13.7872 21.898 13.7776 21.8748 13.7725C21.8516 13.7674 21.8275 13.7669 21.8041 13.7711C21.7807 13.7753 21.7583 13.784 21.7383 13.7967C21.7182 13.8095 21.7009 13.8261 21.6873 13.8455C21.6737 13.865 21.664 13.8869 21.6589 13.91C21.4745 14.6894 21.0481 15.391 20.4405 15.915C19.8328 16.4391 19.0748 16.759 18.2741 16.8291C18.2272 16.831 18.1829 16.8514 18.1511 16.8858C18.1192 16.9201 18.1024 16.9657 18.1043 17.0125C18.1061 17.0592 18.1266 17.1033 18.1611 17.1351C18.1956 17.1668 18.2414 17.1836 18.2883 17.1817H18.2971Z" fill="#A0A0A0"/>
<path d="M20.07 17.6189C20.8017 17.2869 21.4425 16.7844 21.9385 16.154C22.4344 15.5235 22.7709 14.7834 22.9196 13.9962C23.0683 13.209 23.0247 12.3977 22.7927 11.6308C22.5606 10.8638 22.1469 10.1637 21.5863 9.58951C21.5816 9.57757 21.5743 9.56675 21.5651 9.55778C21.5564 9.55033 21.5469 9.54383 21.5368 9.53839C20.6121 8.60857 19.3577 8.07804 18.0441 8.0612C18.0203 8.05983 17.9966 8.06371 17.9746 8.07255C17.9526 8.08138 17.9328 8.09496 17.9167 8.11232C17.9003 8.12879 17.8873 8.14832 17.8785 8.1698C17.8697 8.19128 17.8652 8.21427 17.8653 8.23747V12.8912H13.2986V12.1561C13.2981 11.6777 13.107 11.219 12.7673 10.8808C12.4276 10.5427 11.967 10.3528 11.4868 10.3528H11.3098C11.3028 10.322 11.2915 10.2923 11.2762 10.2646C11.0551 9.87684 9.95097 9.60185 9.61833 9.52605C9.59157 9.51975 9.5637 9.51975 9.53694 9.52605C9.2273 9.60008 8.76726 9.43262 8.34792 9.15234C8.66995 8.88793 8.97251 8.41022 8.97251 7.55176C8.98204 7.06668 8.89536 6.58451 8.71744 6.13288C8.53951 5.68125 8.27384 5.26907 7.93566 4.91996V4.40347C7.93611 4.38445 7.9439 4.36632 7.95741 4.35286C7.97091 4.33941 7.9891 4.33165 8.0082 4.3312H8.65048C8.7639 4.33074 8.87254 4.28564 8.95274 4.20574C9.03294 4.12584 9.07821 4.01761 9.07867 3.90461V3.66311C9.0789 3.65385 9.08096 3.64473 9.08473 3.63626C9.0885 3.62779 9.09391 3.62015 9.10065 3.61377C9.10738 3.60738 9.11532 3.60238 9.12399 3.59905C9.13267 3.59573 9.14192 3.59413 9.15121 3.59437H9.34938C9.40308 3.59496 9.45579 3.57993 9.50105 3.55113C9.5463 3.52232 9.58214 3.48099 9.60417 3.43219C9.62694 3.38402 9.63538 3.33036 9.62848 3.27756C9.62158 3.22476 9.59964 3.17504 9.56525 3.13429L8.97959 2.43976L8.84688 2.04667C8.88306 2.03616 8.91493 2.01442 8.93784 1.98462C8.96076 1.95482 8.97352 1.9185 8.97428 1.88097V1.28339C8.97381 1.1224 8.90929 0.968171 8.79486 0.854502C8.68044 0.740832 8.52544 0.677001 8.36385 0.677002H6.19283C6.1129 0.677002 6.03375 0.692687 5.95991 0.723161C5.88606 0.753634 5.81896 0.798301 5.76244 0.854609C5.70592 0.910918 5.66109 0.977765 5.6305 1.05134C5.59991 1.12491 5.58417 1.20376 5.58417 1.28339V1.55838C5.58335 1.81796 5.52222 2.07383 5.40558 2.30595C5.28893 2.53807 5.11993 2.74013 4.91181 2.89631C4.82246 2.96711 4.75278 3.05952 4.70942 3.16474C4.66606 3.26996 4.65046 3.38449 4.6641 3.49742L4.74195 4.13906C4.74775 4.18315 4.74402 4.22797 4.73102 4.27052C4.71801 4.31306 4.69603 4.35234 4.66654 4.38573C4.63705 4.41911 4.60073 4.44583 4.56003 4.46409C4.51933 4.48235 4.47518 4.49174 4.43054 4.49161C4.39439 4.49149 4.35907 4.50241 4.32934 4.5229C4.2996 4.54338 4.27688 4.57245 4.26422 4.60619C4.2076 4.7367 4.17838 4.87738 4.17838 5.01956C4.17838 5.16174 4.2076 5.30241 4.26422 5.43292C4.40378 5.68499 4.63385 5.87516 4.90827 5.96528C4.91887 6.03278 4.93666 6.09896 4.96135 6.16271C4.72427 6.43655 4.60535 6.79261 4.63048 7.15338L4.17929 10.8428C4.10663 11.2349 3.98786 11.6172 3.82542 11.9816C3.28229 13.2851 2.97326 14.6735 2.91243 16.0835C1.99059 17.0566 1.51994 17.8956 1.43324 18.7135C1.17891 19.4411 0.754353 20.098 0.194679 20.6297C0.0908256 20.7259 0.0259251 20.8566 0.0122337 20.9973C-0.00145772 21.1379 0.0370077 21.2786 0.120366 21.3929C0.881194 22.3977 1.63671 22.9248 2.2843 22.9248C2.53314 22.9245 2.77499 22.8428 2.97259 22.6921C3.01643 22.6598 3.05317 22.6189 3.08056 22.5719C3.10794 22.5249 3.12539 22.4728 3.13183 22.4189C3.13885 22.3641 3.13496 22.3085 3.12038 22.2553C3.10581 22.2021 3.08084 22.1522 3.0469 22.1086L2.1516 20.9893C2.71495 20.2205 3.15047 19.3664 3.44147 18.4597C4.04125 17.9567 4.53807 17.3433 4.90473 16.6529C5.2303 16.6828 5.55763 16.6969 5.88319 16.6969C6.12914 16.6969 6.37508 16.6969 6.62102 16.6723C6.79796 17.9238 7.47739 19.7818 7.99405 20.4269C8.32756 21.1237 8.4924 21.8886 8.47532 22.6604C8.46919 22.8011 8.51519 22.9392 8.60457 23.0484C8.69395 23.1576 8.82048 23.2303 8.96012 23.2526C9.2677 23.298 9.57812 23.3215 9.88904 23.3232C11.0692 23.3232 11.7876 22.9177 11.9026 22.158C11.9147 22.0476 11.8829 21.9368 11.8141 21.8495C11.7804 21.8074 11.7387 21.7723 11.6913 21.7462C11.6439 21.7202 11.5919 21.7038 11.5381 21.6979L10.112 21.5357C9.96504 20.5956 9.66628 19.6854 9.2273 18.8405C9.31061 17.9183 9.17484 16.9895 8.83096 16.1293C8.91841 14.8961 8.77992 13.6572 8.42224 12.4734C8.25768 11.8441 8.12852 11.3487 8.2276 10.9028V10.5484C8.52486 10.7247 8.75842 10.8675 8.86635 10.9257C9.26445 11.4404 9.65902 11.5726 9.96158 11.5726C10.0167 11.5723 10.0716 11.5682 10.1261 11.5603C10.6375 11.4774 11.0427 11.0314 11.2196 10.7036H11.4832C11.8695 10.704 12.2398 10.857 12.513 11.1289C12.7863 11.4008 12.9403 11.7695 12.9412 12.1543V13.0657C12.9416 13.9782 13.1922 14.8732 13.6658 15.6542C14.1395 16.4352 14.8183 17.0725 15.6289 17.4972L17.6937 19.6866L16.4392 21.0562C16.1812 20.8801 15.8659 20.8077 15.5565 20.8537C15.2471 20.8996 14.9667 21.0605 14.7714 21.304C14.5762 21.5474 14.4807 21.8555 14.504 22.1662C14.5274 22.477 14.6678 22.7674 14.8973 22.9792C15.1267 23.191 15.4281 23.3085 15.7408 23.3081C16.0536 23.3076 16.3547 23.1893 16.5835 22.9769C16.8123 22.7644 16.952 22.4736 16.9745 22.1628C16.9969 21.852 16.9006 21.5442 16.7046 21.3013L17.9432 19.9528L19.2331 21.3171C19.0553 21.5355 18.9585 21.8081 18.9588 22.0892C18.9576 22.3686 19.0506 22.6403 19.223 22.8607C19.3953 23.081 19.637 23.2373 19.9092 23.3045C20.1814 23.3716 20.4683 23.3456 20.724 23.2308C20.9796 23.116 21.1891 22.9189 21.3188 22.6712C21.4485 22.4235 21.4909 22.1396 21.4393 21.865C21.3876 21.5904 21.2448 21.3411 21.0338 21.157C20.8228 20.973 20.5559 20.8649 20.2758 20.8502C19.9958 20.8354 19.7189 20.9148 19.4896 21.0756L18.1821 19.6919L20.07 17.6189ZM8.03828 8.932C7.75349 8.70619 7.5292 8.4137 7.38539 8.08059C7.23499 7.65752 7.03151 6.37424 7.00497 6.12921C7.0617 5.94735 7.07503 5.7548 7.0439 5.56689C7.04491 5.55575 7.04491 5.54454 7.0439 5.5334V5.05217C7.16993 5.21455 7.34891 5.32802 7.54994 5.37299H7.61363C7.68657 5.37379 7.75828 5.35425 7.82065 5.31658C8.34515 5.9433 8.62809 6.73583 8.61864 7.55176C8.61864 8.33971 8.32669 8.73457 8.04713 8.932H8.03828ZM9.20076 3.24182H9.15829C9.10253 3.24158 9.04726 3.2523 8.99565 3.27334C8.94404 3.29439 8.8971 3.32536 8.8575 3.36448C8.8179 3.4036 8.78643 3.45011 8.76488 3.50135C8.74332 3.55259 8.73211 3.60756 8.73187 3.66311V3.90461C8.73187 3.92425 8.72405 3.94308 8.71011 3.95696C8.69617 3.97085 8.67727 3.97865 8.65756 3.97865H8.0082C7.89511 3.97865 7.78665 4.02341 7.70668 4.10308C7.62671 4.18275 7.58179 4.2908 7.58179 4.40347V5.01868C7.50747 4.99752 7.32346 4.89881 7.05098 4.45636V3.61023L7.70918 2.70417C7.73116 2.67393 7.74293 2.63751 7.7428 2.60017V2.05724H8.47709L8.65402 2.58607C8.66216 2.60653 8.67351 2.62556 8.68764 2.64248L9.20076 3.24182ZM4.57917 5.27251C4.51941 5.12884 4.51438 4.96836 4.56502 4.82125C4.72989 4.78867 4.87627 4.69512 4.97474 4.55941C5.07321 4.4237 5.11647 4.25589 5.09583 4.0897L5.01797 3.44806C5.01195 3.3959 5.01917 3.34308 5.03895 3.29442C5.05873 3.24576 5.09046 3.20282 5.13121 3.16954C5.38027 2.98032 5.58238 2.73665 5.72196 2.45731C5.86154 2.17797 5.93486 1.87042 5.93628 1.55838V1.28339C5.93674 1.21591 5.96398 1.15135 6.01204 1.10379C6.06011 1.05624 6.12509 1.02955 6.19283 1.02955H8.36385C8.43158 1.02955 8.49657 1.05624 8.54464 1.10379C8.5927 1.15135 8.61994 1.21591 8.6204 1.28339V1.70469H7.55878C7.51186 1.70469 7.46685 1.72326 7.43367 1.75632C7.40049 1.78938 7.38185 1.83421 7.38185 1.88097V2.54376L6.72364 3.44982C6.70166 3.48007 6.68989 3.51648 6.69003 3.55382V4.89352C6.59695 4.80389 6.48848 4.73165 6.36977 4.68023C6.24091 4.62538 6.102 4.59784 5.96188 4.59936C5.82177 4.60088 5.6835 4.63142 5.55586 4.68904C5.4165 4.7506 5.29124 4.83991 5.18779 4.95146C5.08434 5.06301 5.00487 5.19446 4.95428 5.33773C4.92778 5.41398 4.90823 5.49244 4.89589 5.57218C4.76124 5.50806 4.65039 5.40317 4.57917 5.27251ZM2.76026 22.3254C2.76559 22.332 2.76944 22.3397 2.77158 22.3479C2.77371 22.3561 2.77408 22.3647 2.77265 22.373C2.77178 22.3803 2.76945 22.3873 2.7658 22.3937C2.76216 22.4 2.75726 22.4056 2.75141 22.41C1.92689 23.02 0.828113 21.7525 0.394618 21.1761C0.362877 21.1315 0.348757 21.0768 0.35496 21.0225C0.361162 20.9682 0.387252 20.9181 0.428236 20.8817L0.491933 20.8183C0.623196 20.9509 0.780532 21.055 0.954081 21.1241C1.12763 21.1933 1.31365 21.226 1.50047 21.2202C1.61933 21.2206 1.73792 21.2088 1.85435 21.1849L2.76026 22.3254ZM3.17252 18.2147C3.14441 18.2362 3.12345 18.2657 3.11237 18.2993C2.82572 19.2112 2.3873 20.0687 1.81542 20.8359C1.63848 20.8747 1.08467 20.9611 0.736106 20.5697C1.19345 20.0549 1.54564 19.4561 1.77295 18.807C1.77815 18.7933 1.78172 18.7791 1.78357 18.7647C1.85435 18.0278 2.28784 17.2575 3.14421 16.3479C3.59627 16.4616 4.05477 16.5481 4.51724 16.607C4.17056 17.2197 3.7149 17.7645 3.17252 18.2147ZM11.5292 22.0698C11.534 22.0754 11.5376 22.0818 11.5397 22.0888C11.5418 22.0958 11.5425 22.1031 11.5416 22.1104C11.3895 23.1293 9.71387 23.0041 9.00082 22.9036C8.94791 22.893 8.90071 22.8635 8.86813 22.8207C8.83554 22.7778 8.8198 22.7245 8.82388 22.6709V22.5828H8.86281C9.429 22.5828 9.84481 22.1827 10.043 21.8777L11.4956 22.0434C11.5028 22.0452 11.5094 22.0485 11.5152 22.0531C11.521 22.0576 11.5258 22.0633 11.5292 22.0698ZM8.87519 18.9515C9.3215 19.7978 9.62063 20.7133 9.75988 21.6591C9.6661 21.8089 9.33346 22.2602 8.80973 22.2302C8.7664 21.5458 8.59097 20.876 8.29307 20.2577C8.28777 20.2441 8.27997 20.2315 8.27007 20.2207C7.79588 19.646 7.14121 17.8375 6.96251 16.6423C7.49348 16.5883 8.01979 16.4958 8.53724 16.3656C8.82945 17.1597 8.94066 18.0087 8.86281 18.851C8.85741 18.8854 8.86298 18.9205 8.87873 18.9515H8.87519ZM8.47532 16.013C6.76674 16.4458 4.97664 16.4458 3.26807 16.013C3.33633 14.6683 3.63557 13.3453 4.15275 12.1014C4.29355 11.7692 4.40889 11.4269 4.49778 11.0773C5.5824 11.354 6.78557 11.5726 7.84011 11.1513C7.85237 11.6304 7.93341 12.1053 8.08075 12.5615C8.41449 13.68 8.54805 14.8484 8.47532 16.013ZM7.87727 10.7529C6.87227 11.2412 5.6461 11.0156 4.54909 10.7318L4.98259 7.18334C4.98346 7.17632 4.98346 7.16921 4.98259 7.16219C4.96598 6.92852 5.02155 6.69539 5.14183 6.4941C5.23812 6.6146 5.35866 6.71367 5.4957 6.78496C5.56825 7.13751 5.83542 8.38378 6.05128 8.79979C6.28307 9.24577 7.15891 9.86979 7.88435 10.3352L7.87727 10.7529ZM10.0731 11.213C9.75103 11.2659 9.43431 11.0879 9.12998 10.6842C9.1152 10.6647 9.09653 10.6485 9.07513 10.6366C8.41693 10.2664 6.64756 9.18584 6.35915 8.63057C6.18222 8.27802 5.9062 7.05995 5.81773 6.62279C5.81222 6.59446 5.79983 6.56792 5.78163 6.54548C5.76343 6.52305 5.73998 6.50541 5.71334 6.4941C5.52425 6.40587 5.3758 6.24944 5.29797 6.05641C5.22014 5.86338 5.21872 5.64811 5.29399 5.45408C5.32693 5.35588 5.37995 5.26555 5.44969 5.18879C5.51942 5.11203 5.60438 5.05051 5.69918 5.0081C5.78297 4.97201 5.8733 4.95339 5.96458 4.95339C6.05587 4.95339 6.1462 4.97201 6.22999 5.0081C6.41914 5.09636 6.56783 5.25258 6.64625 5.44545C6.72467 5.63832 6.72704 5.85359 6.65287 6.04813C6.64679 6.076 6.64679 6.10486 6.65287 6.13274C6.65287 6.1962 6.87935 7.69454 7.05805 8.1934C7.24352 8.62069 7.53893 8.99161 7.91443 9.26869C7.92783 9.28395 7.94405 9.29652 7.9622 9.3057C8.47709 9.70409 9.10167 9.97203 9.57586 9.88213C10.2535 10.039 10.9011 10.2981 10.9648 10.4392C10.887 10.6366 10.5313 11.139 10.0731 11.213ZM15.7474 22.9688C15.5724 22.9688 15.4014 22.9172 15.2559 22.8203C15.1104 22.7235 14.997 22.5858 14.9301 22.4248C14.8631 22.2637 14.8456 22.0865 14.8797 21.9155C14.9139 21.7445 14.9981 21.5875 15.1218 21.4642C15.2456 21.341 15.4032 21.257 15.5748 21.223C15.7464 21.189 15.9243 21.2065 16.086 21.2732C16.2476 21.3399 16.3858 21.4529 16.483 21.5978C16.5802 21.7427 16.6321 21.9131 16.6321 22.0875C16.6321 22.3212 16.5389 22.5454 16.373 22.7107C16.2071 22.876 15.982 22.9688 15.7474 22.9688ZM21.0944 22.0875C21.0944 22.2618 21.0426 22.4322 20.9453 22.5771C20.8481 22.7221 20.71 22.835 20.5483 22.9018C20.3867 22.9685 20.2088 22.9859 20.0372 22.9519C19.8656 22.9179 19.7079 22.834 19.5842 22.7107C19.4605 22.5874 19.3762 22.4304 19.3421 22.2594C19.3079 22.0884 19.3255 21.9112 19.3924 21.7502C19.4594 21.5891 19.5728 21.4515 19.7183 21.3546C19.8637 21.2578 20.0348 21.2061 20.2098 21.2061C20.4426 21.207 20.6656 21.2993 20.8306 21.463C20.9955 21.6266 21.089 21.8485 21.0909 22.0804L21.0944 22.0875ZM21.4271 9.94559C22.1705 10.753 22.603 11.7965 22.6479 12.8912H18.4599L21.4271 9.94559ZM21.1794 9.69527L18.2104 12.6426V8.41198C19.32 8.47159 20.3717 8.92421 21.1758 9.68822L21.1794 9.69527ZM13.3021 13.2437H22.6479C22.6071 14.4506 22.0972 15.5944 21.2258 16.4337C20.3544 17.2731 19.1898 17.7423 17.9777 17.7423C16.7656 17.7423 15.601 17.2731 14.7296 16.4337C13.8582 15.5944 13.3483 14.4506 13.3075 13.2437H13.3021ZM16.4357 17.8357C16.9323 17.9962 17.4512 18.0777 17.9733 18.0772C18.4377 18.0766 18.8997 18.012 19.3463 17.885L17.9308 19.4257L16.4357 17.8357Z" fill="#A0A0A0"/>
</g>
<defs>
<clipPath id="clip0_309_676">
<rect width="23" height="22.6462" fill="white" transform="translate(0 0.677002)"/>
</clipPath>
</defs>
</svg>
