<svg width="20" height="20" viewBox="0 0 20 20" fill="none" xmlns="http://www.w3.org/2000/svg">
<path d="M4.96875 1C2.22059 1 1.375 1.88235 1.375 4.75C1.375 7.61765 2.22059 8.5 4.96875 8.5C7.71691 8.5 8.5625 7.61765 8.5625 4.75C8.5625 1.88235 7.71691 1 4.96875 1Z" stroke="#01727A" stroke-width="1.5" stroke-linecap="round" stroke-linejoin="round"/>
<path d="M4.96875 11.5C2.22059 11.5 1.375 12.3824 1.375 15.25C1.375 18.1176 2.22059 19 4.96875 19C7.71691 19 8.5625 18.1176 8.5625 15.25C8.5625 12.3824 7.71691 11.5 4.96875 11.5Z" stroke="#01727A" stroke-width="1.5" stroke-linecap="round" stroke-linejoin="round"/>
<path d="M15.0312 11.5C12.2831 11.5 11.4375 12.3824 11.4375 15.25C11.4375 18.1176 12.2831 19 15.0312 19C17.7794 19 18.625 18.1176 18.625 15.25C18.625 12.3824 17.7794 11.5 15.0312 11.5Z" stroke="#01727A" stroke-width="1.5" stroke-linecap="round" stroke-linejoin="round"/>
<path d="M15.0312 1C12.2831 1 11.4375 1.88235 11.4375 4.75C11.4375 7.61765 12.2831 8.5 15.0312 8.5C17.7794 8.5 18.625 7.61765 18.625 4.75C18.625 1.88235 17.7794 1 15.0312 1Z" stroke="#01727A" stroke-width="1.5" stroke-linecap="round" stroke-linejoin="round"/>
</svg>
