<svg width="28" height="24" viewBox="0 0 28 24" fill="none" xmlns="http://www.w3.org/2000/svg">
<path d="M26.2675 18.1394V13.405C26.2675 11.4925 24.7112 9.93624 22.7987 9.93624H22.2012V8.94499H24.1343C24.535 8.94499 24.8612 8.61874 24.8612 8.21811V6.76249C24.8612 6.36124 24.535 6.03561 24.1343 6.03561H17.9431C17.5425 6.03561 17.2162 6.36186 17.2162 6.76249V8.21811C17.2162 8.61936 17.5425 8.94499 17.9431 8.94499H19.9394V9.93624H17.6719C15.8919 9.93624 14.4087 11.27 14.2218 13.04C14.2093 13.1637 14.2031 13.2862 14.2031 13.4044V14.1287C14.0018 14.0531 13.7912 13.9762 13.57 13.8981C12.9031 13.6637 12.3006 13.4756 11.9681 13.375V12.4969C13.3131 11.5681 13.665 10.2044 13.7531 9.67686C14.3062 9.36749 14.6462 8.96311 14.765 8.47249C14.9131 7.85936 14.6568 7.29749 14.5012 7.03061C14.935 5.34061 14.8575 3.95874 14.2706 2.92311C13.7787 2.05499 13.0756 1.71999 12.8718 1.63811C12.8256 1.61936 12.7793 1.59874 12.7318 1.57686C10.4906 0.559364 9.04185 0.834364 8.22185 1.24374C7.54685 1.58061 7.17247 2.06186 7.01435 2.30811C6.3406 2.51374 5.8231 2.91499 5.47497 3.50186C4.7006 4.80686 5.02247 6.63124 5.12997 7.12499C4.8356 7.88124 4.8356 8.50124 5.12997 8.96936C5.38685 9.37811 5.80372 9.55499 6.09685 9.63124C6.22435 10.8725 6.88123 11.7162 7.5881 12.2756V13.4931C7.24498 13.5969 6.6156 13.7937 5.92372 14.0381C5.9206 14.0394 5.91747 14.0406 5.91435 14.0419C4.74497 14.4556 3.8631 14.8406 3.29247 15.1862L3.27685 15.195C2.52872 15.6237 2.02872 16.29 1.7406 16.7731C0.953099 18.095 0.6381 19.8512 0.80435 21.9931C0.853725 22.6281 1.39935 23.1256 2.0456 23.1256H17.5106C18.0981 23.1256 18.5931 22.6962 18.7425 22.0569C18.7669 21.9531 18.7881 21.8506 18.8081 21.7494H26.26C26.7994 21.7494 27.2381 21.3106 27.2381 20.7712V19.115C27.2381 18.5781 26.8031 18.1412 26.2675 18.1369V18.1394ZM17.9662 8.19499V6.78561H24.1112V8.19499H17.9662ZM21.4512 8.94499V9.93624H20.6894V8.94499H21.4512ZM12.8881 14.4575L11.3243 17.0931L10.375 16.5381L11.7706 14.1C12.0231 14.1762 12.4243 14.3012 12.8881 14.4575ZM9.90935 13.23C10.205 13.23 10.5006 13.1819 10.785 13.0856C10.9368 13.0337 11.0812 12.9775 11.2181 12.9162V13.5556L9.74185 16.135L8.33872 13.675V12.77C8.5106 12.8637 8.67497 12.9412 8.82372 13.0056C9.17122 13.155 9.53997 13.23 9.90997 13.23H9.90935ZM6.1206 3.88436C6.3931 3.42561 6.79622 3.13436 7.35247 2.99374C7.45997 2.96624 7.54998 2.89311 7.5981 2.79311C7.60873 2.77061 8.71872 0.580613 12.4237 2.26249C12.4793 2.28749 12.5343 2.31249 12.5912 2.33499C12.6956 2.37686 13.2362 2.62061 13.6175 3.29436C14.0856 4.12061 14.1487 5.30311 13.8037 6.72686C13.6906 6.65436 13.6137 6.44936 13.5937 6.36186C13.5925 6.35436 13.5906 6.34749 13.5887 6.33999C13.2687 5.15686 12.7162 4.41624 11.9456 4.13749C11.1006 3.83249 10.2575 4.19186 9.86685 4.40561C9.3306 4.08811 8.6856 4.00936 8.08185 4.18999C7.42185 4.38749 6.8856 4.86561 6.6106 5.50186C6.3481 6.10811 6.03435 6.43374 5.7981 6.60624C5.69935 5.95436 5.61122 4.74124 6.1206 3.88436ZM6.8256 9.30436C6.81998 9.11124 6.66497 8.95374 6.47185 8.94124C6.46685 8.94124 5.97122 8.90561 5.76247 8.56811C5.5781 8.27124 5.67123 7.82311 5.80685 7.45436C6.14685 7.31249 6.8206 6.90499 7.29872 5.79936C7.4856 5.36686 7.84935 5.04186 8.29685 4.90811C8.72872 4.77936 9.17185 4.84249 9.54497 5.08811C9.5781 5.10936 9.61123 5.13249 9.64497 5.15561C9.77372 5.24561 9.9456 5.24499 10.0743 5.15561C10.0831 5.14999 10.9343 4.56686 11.6943 4.84374C12.2175 5.03436 12.6106 5.60061 12.8625 6.52624C12.8856 6.62936 13.0187 7.13249 13.4262 7.37499C13.5718 7.46124 13.7331 7.50374 13.9037 7.50124C13.9987 7.68874 14.1106 7.99499 14.035 8.30061C13.9581 8.61249 13.6918 8.88061 13.2437 9.09686C13.1237 9.15499 13.0431 9.27374 13.0331 9.40624C13.0262 9.49499 12.8356 11.5969 10.5443 12.3744C10.0806 12.5319 9.57435 12.5112 9.11997 12.3156C8.8231 12.1881 8.50873 12.0225 8.21123 11.8106C8.19247 11.7944 8.17247 11.7794 8.1506 11.7669C7.45372 11.2512 6.86247 10.4712 6.82685 9.30311L6.8256 9.30436ZM7.78435 14.2194L9.10497 16.5344L8.15685 17.095L6.61185 14.5956C7.09872 14.4306 7.52247 14.2987 7.78435 14.2194ZM4.6156 22.3781V19.8006C4.6156 19.5937 4.44747 19.4256 4.2406 19.4256C4.03372 19.4256 3.8656 19.5937 3.8656 19.8006V22.3781H2.04435C1.78685 22.3781 1.56997 22.1844 1.5506 21.9375C1.21372 17.5962 3.07122 16.1794 3.64872 15.8481C3.66185 15.8406 3.67247 15.8344 3.67997 15.83C4.15497 15.5419 4.91497 15.205 5.88747 14.8506L7.60247 17.6244C7.7131 17.8031 7.90747 17.9025 8.1056 17.9025C8.20747 17.9025 8.30997 17.8762 8.40247 17.8212L8.6331 17.685L7.93997 20.8044C7.91622 20.9112 7.93998 21.0231 8.00623 21.1106L8.95622 22.3775H4.61685L4.6156 22.3781ZM8.70935 20.7994L9.51122 17.1887C9.5756 17.2381 9.6556 17.2669 9.73997 17.2669C9.8256 17.2669 9.90622 17.2375 9.97185 17.1862L10.705 20.8087L9.70685 22.1294L8.70872 20.7987L8.70935 20.7994ZM18.0112 21.8894C17.9587 22.115 17.7956 22.3787 17.51 22.3787H15.8518V19.8012C15.8518 19.5944 15.6837 19.4262 15.4768 19.4262C15.27 19.4262 15.1018 19.5944 15.1018 19.8012V22.3787H10.4593L11.4056 21.1262C11.4706 21.0406 11.495 20.9312 11.4737 20.8256L10.8362 17.6775L11.0837 17.8219C11.1768 17.8762 11.2787 17.9019 11.3793 17.9019C11.5806 17.9019 11.7775 17.7987 11.8868 17.6144L13.6093 14.7106C14.6625 15.0925 15.4662 15.4519 15.9437 15.7544C15.9518 15.7594 16.7356 16.2631 17.3781 17.2994C17.6312 17.7069 17.8256 18.1356 17.9631 18.5837C17.9681 18.61 17.9756 18.6356 17.9856 18.6594C18.2731 19.6469 18.2819 20.7281 18.0106 21.8894H18.0112ZM18.6019 18.1387C18.4337 17.6537 18.2243 17.2412 18.0156 16.9044C17.2837 15.7237 16.3831 15.145 16.345 15.1206C16.005 14.905 15.5381 14.6731 14.9518 14.4275V13.4056C14.9518 13.3106 14.9568 13.2162 14.9668 13.1181C15.1131 11.7325 16.2756 10.6875 17.6706 10.6875H22.7969C24.2962 10.6875 25.5156 11.9069 25.5156 13.4062V18.1394H18.6012L18.6019 18.1387ZM26.4869 20.7744C26.4869 20.9 26.3844 21.0025 26.2587 21.0025H18.9181C18.9969 20.21 18.9419 19.5056 18.8106 18.89H26.2587C26.3844 18.89 26.4869 18.9925 26.4869 19.1181V20.7744Z" fill="#FDFDFD"/>
</svg>
